<?xml version="1.0" encoding="UTF-8" standalone="no"?><svg xmlns="http://www.w3.org/2000/svg" xmlns:xlink="http://www.w3.org/1999/xlink" contentScriptType="application/ecmascript" contentStyleType="text/css" height="931px" preserveAspectRatio="none" style="width:1187px;height:931px;" version="1.1" viewBox="0 0 1187 931" width="1187px" zoomAndPan="magnify"><defs><filter height="300%" id="f1k80jg4ruv4o5" width="300%" x="-1" y="-1"><feGaussianBlur result="blurOut" stdDeviation="2.0"/><feColorMatrix in="blurOut" result="blurOut2" type="matrix" values="0 0 0 0 0 0 0 0 0 0 0 0 0 0 0 0 0 0 .4 0"/><feOffset dx="4.0" dy="4.0" in="blurOut2" result="blurOut3"/><feBlend in="SourceGraphic" in2="blurOut3" mode="normal"/></filter></defs><g><!--cluster main--><polygon fill="#FFFFFF" filter="url(#f1k80jg4ruv4o5)" points="22,24,127,24,134,46.2969,610,46.2969,610,121,22,121,22,24" style="stroke: #000000; stroke-width: 1.5;"/><line style="stroke: #000000; stroke-width: 1.5;" x1="22" x2="134" y1="46.2969" y2="46.2969"/><text fill="#000000" font-family="sans-serif" font-size="14" font-weight="bold" lengthAdjust="spacingAndGlyphs" textLength="99" x="26" y="38.9951">Main Activity</text><!--cluster fb--><path d="M140,224 C140,221 142,219 145,219 C148,219 150,221 150,224 C150,221 152,219 155,219 C158,219 160,221 160,224 C160,221 162,219 165,219 C168,219 170,221 170,224 C170,221 172,219 175,219 C178,219 180,221 180,224 C180,221 182,219 185,219 C188,219 190,221 190,224 C190,221 192,219 195,219 C198,219 200,221 200,224 C200,221 202,219 205,219 C208,219 210,221 210,224 C210,221 212,219 215,219 C218,219 220,221 220,224 C220,221 222,219 225,219 C228,219 230,221 230,224 C230,221 232,219 235,219 C238,219 240,221 240,224 C240,221 242,219 245,219 C248,219 250,221 250,224 C250,221 252,219 255,219 C258,219 260,221 260,224 C260,221 262,219 265,219 C268,219 270,221 270,224 C270,221 272,219 275,219 C278,219 280,221 280,224 C280,221 282,219 285,219 C288,219 290,221 290,224 C290,221 292,219 295,219 C298,219 300,221 300,224 C300,221 302,219 305,219 C308,219 310,221 310,224 C310,221 312,219 315,219 C318,219 320,221 320,224 C320,221 322,219 325,219 C328,219 330,221 330,224 C330,221 332,219 335,219 C338,219 340,221 340,224 C340,221 342,219 345,219 C348,219 350,221 350,224 C350,221 352,219 355,219 C358,219 360,221 360,224 C360,221 362,219 365,219 C368,219 370,221 370,224 C370,221 372,219 375,219 C378,219 380,221 380,224 C380,221 382,219 385,219 C388,219 390,221 390,224 C390,221 392,219 395,219 C398,219 400,221 400,224 C400,221 402,219 405,219 C408,219 410,221 410,224 C410,221 412,219 415,219 C418,219 420,221 420,224 C420,221 422,219 425,219 C428,219 430,221 430,224 C430,221 432,219 435,219 C438,219 440,221 440,224 C440,221 442,219 445,219 C448,219 450,221 450,224 C450,221 452,219 455,219 C458,219 460,221 460,224 C460,221 462,219 465,219 C468,219 470,221 470,224 C470,221 472,219 475,219 C478,219 480,221 480,224 C480,221 482,219 485,219 C488,219 490,221 490,224 C490,221 492,219 495,219 C498,219 500,221 500,224 C500,221 502,219 505,219 C508,219 510,221 510,224 C510,221 512,219 515,219 C518,219 520,221 520,224 C520,221 522,219 525,219 C528,219 530,221 530,224 C530,221 532,219 535,219 C538,219 540,221 540,224 C540,221 542,219 545,219 C548,219 550,221 550,224 C550,221 552,219 555,219 C558,219 560,221 560,224 C560,221 562,219 565,219 C568,219 570,221 570,224 C570,221 572,219 575,219 C578,219 580,221 580,224 C580,221 582,219 585,219 C588,219 590,221 590,224 C590,221 592,219 595,219 C598,219 600,221 600,224 C600,221 602,219 605,219 C608,219 610,221 610,224 C610,221 612,219 615,219 C618,219 620,221 620,224 C620,221 622,219 625,219 C628,219 630,221 630,224 C630,221 632,219 635,219 C638,219 640,221 640,224 C640,221 642,219 645,219 C648,219 650,221 650,224 C650,221 652,219 655,219 C658,219 660,221 660,224 C660,221 662,219 665,219 C668,219 670,221 670,224 C670,221 672,219 675,219 C678,219 680,221 680,224 C680,221 682,219 685,219 C688,219 690,221 690,224 C690,221 692,219 695,219 C698,219 700,221 700,224 C700,221 702,219 705,219 C708,219 710,221 710,224 C710,221 712,219 715,219 C718,219 720,221 720,224 C720,221 722,219 725,219 C728,219 730,221 730,224 C730,221 732,219 735,219 C738,219 740,221 740,224 C740,221 742,219 745,219 C748,219 750,221 750,224 C750,221 752,219 755,219 C758,219 760,221 760,224 C760,221 762,219 765,219 C768,219 770,221 770,224 C770,221 772,219 775,219 C778,219 780,221 780,224 C780,221 782,219 785,219 C788,219 790,221 790,224 C790,221 792,219 795,219 C798,219 800,221 800,224 C800,221 802,219 805,219 C808,219 810,221 810,224 C810,221 812,219 815,219 C818,219 820,221 820,224 C820,221 822,219 825,219 C828,219 830,221 830,224 C830,221 832,219 835,219 C838,219 840,221 840,224 C840,221 842,219 845,219 C848,219 850,221 850,224 C850,221 852,219 855,219 C858,219 860,221 860,224 C860,221 862,219 865,219 C868,219 870,221 870,224 C870,221 872,219 875,219 C878,219 880,221 880,224 C880,221 882,219 885,219 C888,219 890,221 890,224 C890,221 892,219 895,219 C898,219 900,221 900,224 C900,221 902,219 905,219 C908,219 910,221 910,224 C910,221 912,219 915,219 C918,219 920,221 920,224 C920,221 922,219 925,219 C928,219 930,221 930,224 C930,221 932,219 935,219 C938,219 940,221 940,224 C940,221 942,219 945,219 C948,219 950,221 950,224 C950,221 952,219 955,219 C958,219 960,221 960,224 C960,221 962,219 965,219 C968,219 970,221 970,224 C970,221 972,219 975,219 C978,219 980,221 980,224 C980,221 982,219 985,219 C988,219 990,221 990,224 C990,221 992,219 995,219 C998,219 1000,221 1000,224 C1000,221 1002,219 1005,219 C1008,219 1010,221 1010,224 C1010,221 1012,219 1015,219 C1018,219 1020,221 1020,224 C1020,221 1022,219 1025,219 C1028,219 1030,221 1030,224 C1030,221 1032,219 1035,219 C1038,219 1040,221 1040,224 C1040,221 1042,219 1045,219 C1048,219 1050,221 1050,224 C1050,221 1052,219 1055,219 C1058,219 1060,221 1060,224 C1060,221 1062,219 1065,219 C1068,219 1070,221 1070,224 C1070,221 1072,219 1075,219 C1078,219 1080,221 1080,224 C1080,221 1082,219 1085,219 C1088,219 1090,221 1090,224 C1090,221 1092,219 1095,219 C1098,219 1100,221 1100,224 C1100,221 1102,219 1105,219 C1108,219 1110,221 1110,224 C1110,221 1112,219 1115,219 C1118,219 1120,221 1120,224 C1120,221 1122,219 1125,219 C1128,219 1130,221 1130,224 C1130,221 1132,219 1135,219 C1138,219 1140,221 1140,224 C1140,221 1142,219 1145,219 C1148,219 1150,221 1150,224 C1150,221 1152,219 1155,219 C1158,219 1160,221 1160,224 C1160,221 1162,219 1165,219 C1168,219 1170,221 1170,224 C1173,224 1175,226 1175,229 C1175,232 1173,234 1170,234 C1173,234 1175,236 1175,239 C1175,242 1173,244 1170,244 C1173,244 1175,246 1175,249 C1175,252 1173,254 1170,254 C1173,254 1175,256 1175,259 C1175,262 1173,264 1170,264 C1173,264 1175,266 1175,269 C1175,272 1173,274 1170,274 C1173,274 1175,276 1175,279 C1175,282 1173,284 1170,284 C1173,284 1175,286 1175,289 C1175,292 1173,294 1170,294 C1173,294 1175,296 1175,299 C1175,302 1173,304 1170,304 C1173,304 1175,306 1175,309 C1175,312 1173,314 1170,314 C1173,314 1175,316 1175,319 C1175,322 1173,324 1170,324 C1173,324 1175,326 1175,329 C1175,332 1173,334 1170,334 C1173,334 1175,336 1175,339 C1175,342 1173,344 1170,344 C1173,344 1175,346 1175,349 C1175,352 1173,354 1170,354 C1173,354 1175,356 1175,359 C1175,362 1173,364 1170,364 C1173,364 1175,366 1175,369 C1175,372 1173,374 1170,374 C1173,374 1175,376 1175,379 C1175,382 1173,384 1170,384 C1173,384 1175,386 1175,389 C1175,392 1173,394 1170,394 C1173,394 1175,396 1175,399 C1175,402 1173,404 1170,404 C1173,404 1175,406 1175,409 C1175,412 1173,414 1170,414 C1173,414 1175,416 1175,419 C1175,422 1173,424 1170,424 C1173,424 1175,426 1175,429 C1175,432 1173,434 1170,434 C1173,434 1175,436 1175,439 C1175,442 1173,444 1170,444 C1173,444 1175,446 1175,449 C1175,452 1173,454 1170,454 C1173,454 1175,456 1175,459 C1175,462 1173,464 1170,464 C1173,464 1175,466 1175,469 C1175,472 1173,474 1170,474 C1173,474 1175,476 1175,479 C1175,482 1173,484 1170,484 C1173,484 1175,486 1175,489 C1175,492 1173,494 1170,494 C1173,494 1175,496 1175,499 C1175,502 1173,504 1170,504 C1173,504 1175,506 1175,509 C1175,512 1173,514 1170,514 C1173,514 1175,516 1175,519 C1175,522 1173,524 1170,524 C1173,524 1175,526 1175,529 C1175,532 1173,534 1170,534 C1173,534 1175,536 1175,539 C1175,542 1173,544 1170,544 C1173,544 1175,546 1175,549 C1175,552 1173,554 1170,554 C1173,554 1175,556 1175,559 C1175,562 1173,564 1170,564 C1173,564 1175,566 1175,569 C1175,572 1173,574 1170,574 C1173,574 1175,576 1175,579 C1175,582 1173,584 1170,584 C1173,584 1175,586 1175,589 C1175,592 1173,594 1170,594 C1173,594 1175,596 1175,599 C1175,602 1173,604 1170,604 C1173,604 1175,606 1175,609 C1175,612 1173,614 1170,614 C1173,614 1175,616 1175,619 C1175,622 1173,624 1170,624 C1173,624 1175,626 1175,629 C1175,632 1173,634 1170,634 C1173,634 1175,636 1175,639 C1175,642 1173,644 1170,644 C1173,644 1175,646 1175,649 C1175,652 1173,654 1170,654 C1173,654 1175,656 1175,659 C1175,662 1173,664 1170,664 C1173,664 1175,666 1175,669 C1175,672 1173,674 1170,674 C1173,674 1175,676 1175,679 C1175,682 1173,684 1170,684 C1173,684 1175,686 1175,689 C1175,692 1173,694 1170,694 C1173,694 1175,696 1175,699 C1175,702 1173,704 1170,704 C1173,704 1175,706 1175,709 C1175,712 1173,714 1170,714 C1173,714 1175,716 1175,719 C1175,722 1173,724 1170,724 C1173,724 1175,726 1175,729 C1175,732 1173,734 1170,734 C1173,734 1175,736 1175,739 C1175,742 1173,744 1170,744 C1173,744 1175,746 1175,749 C1175,752 1173,754 1170,754 C1173,754 1175,756 1175,759 C1175,762 1173,764 1170,764 C1173,764 1175,766 1175,769 C1175,772 1173,774 1170,774 C1173,774 1175,776 1175,779 C1175,782 1173,784 1170,784 C1173,784 1175,786 1175,789 C1175,792 1173,794 1170,794 C1173,794 1175,796 1175,799 C1175,802 1173,804 1170,804 C1173,804 1175,806 1175,809 C1175,812 1173,814 1170,814 C1173,814 1175,816 1175,819 C1175,822 1173,824 1170,824 C1173,824 1175,826 1175,829 C1175,832 1173,834 1170,834 C1173,834 1175,836 1175,839 C1175,842 1173,844 1170,844 C1173,844 1175,846 1175,849 C1175,852 1173,854 1170,854 C1173,854 1175,856 1175,859 C1175,862 1173,864 1170,864 C1173,864 1175,866 1175,869 C1175,872 1173,874 1170,874 C1173,874 1175,876 1175,879 C1175,882 1173,884 1170,884 C1173,884 1175,886 1175,889 C1175,892 1173,894 1170,894 C1173,894 1175,896 1175,899 C1175,902 1173,904 1170,904 C1173,904 1175,906 1175,909 C1175,912 1173,914 1170,914 C1170,917 1167,919 1165,919 C1162,919 1160,917 1160,914 C1160,917 1157,919 1155,919 C1152,919 1150,917 1150,914 C1150,917 1147,919 1145,919 C1142,919 1140,917 1140,914 C1140,917 1137,919 1135,919 C1132,919 1130,917 1130,914 C1130,917 1127,919 1125,919 C1122,919 1120,917 1120,914 C1120,917 1117,919 1115,919 C1112,919 1110,917 1110,914 C1110,917 1107,919 1105,919 C1102,919 1100,917 1100,914 C1100,917 1097,919 1095,919 C1092,919 1090,917 1090,914 C1090,917 1087,919 1085,919 C1082,919 1080,917 1080,914 C1080,917 1077,919 1075,919 C1072,919 1070,917 1070,914 C1070,917 1067,919 1065,919 C1062,919 1060,917 1060,914 C1060,917 1057,919 1055,919 C1052,919 1050,917 1050,914 C1050,917 1047,919 1045,919 C1042,919 1040,917 1040,914 C1040,917 1037,919 1035,919 C1032,919 1030,917 1030,914 C1030,917 1027,919 1025,919 C1022,919 1020,917 1020,914 C1020,917 1017,919 1015,919 C1012,919 1010,917 1010,914 C1010,917 1007,919 1005,919 C1002,919 1000,917 1000,914 C1000,917 997,919 995,919 C992,919 990,917 990,914 C990,917 987,919 985,919 C982,919 980,917 980,914 C980,917 977,919 975,919 C972,919 970,917 970,914 C970,917 967,919 965,919 C962,919 960,917 960,914 C960,917 957,919 955,919 C952,919 950,917 950,914 C950,917 947,919 945,919 C942,919 940,917 940,914 C940,917 937,919 935,919 C932,919 930,917 930,914 C930,917 927,919 925,919 C922,919 920,917 920,914 C920,917 917,919 915,919 C912,919 910,917 910,914 C910,917 907,919 905,919 C902,919 900,917 900,914 C900,917 897,919 895,919 C892,919 890,917 890,914 C890,917 887,919 885,919 C882,919 880,917 880,914 C880,917 877,919 875,919 C872,919 870,917 870,914 C870,917 867,919 865,919 C862,919 860,917 860,914 C860,917 857,919 855,919 C852,919 850,917 850,914 C850,917 847,919 845,919 C842,919 840,917 840,914 C840,917 837,919 835,919 C832,919 830,917 830,914 C830,917 827,919 825,919 C822,919 820,917 820,914 C820,917 817,919 815,919 C812,919 810,917 810,914 C810,917 807,919 805,919 C802,919 800,917 800,914 C800,917 797,919 795,919 C792,919 790,917 790,914 C790,917 787,919 785,919 C782,919 780,917 780,914 C780,917 777,919 775,919 C772,919 770,917 770,914 C770,917 767,919 765,919 C762,919 760,917 760,914 C760,917 757,919 755,919 C752,919 750,917 750,914 C750,917 747,919 745,919 C742,919 740,917 740,914 C740,917 737,919 735,919 C732,919 730,917 730,914 C730,917 727,919 725,919 C722,919 720,917 720,914 C720,917 717,919 715,919 C712,919 710,917 710,914 C710,917 707,919 705,919 C702,919 700,917 700,914 C700,917 697,919 695,919 C692,919 690,917 690,914 C690,917 687,919 685,919 C682,919 680,917 680,914 C680,917 677,919 675,919 C672,919 670,917 670,914 C670,917 667,919 665,919 C662,919 660,917 660,914 C660,917 657,919 655,919 C652,919 650,917 650,914 C650,917 647,919 645,919 C642,919 640,917 640,914 C640,917 637,919 635,919 C632,919 630,917 630,914 C630,917 627,919 625,919 C622,919 620,917 620,914 C620,917 617,919 615,919 C612,919 610,917 610,914 C610,917 607,919 605,919 C602,919 600,917 600,914 C600,917 597,919 595,919 C592,919 590,917 590,914 C590,917 587,919 585,919 C582,919 580,917 580,914 C580,917 577,919 575,919 C572,919 570,917 570,914 C570,917 567,919 565,919 C562,919 560,917 560,914 C560,917 557,919 555,919 C552,919 550,917 550,914 C550,917 547,919 545,919 C542,919 540,917 540,914 C540,917 537,919 535,919 C532,919 530,917 530,914 C530,917 527,919 525,919 C522,919 520,917 520,914 C520,917 517,919 515,919 C512,919 510,917 510,914 C510,917 507,919 505,919 C502,919 500,917 500,914 C500,917 497,919 495,919 C492,919 490,917 490,914 C490,917 487,919 485,919 C482,919 480,917 480,914 C480,917 477,919 475,919 C472,919 470,917 470,914 C470,917 467,919 465,919 C462,919 460,917 460,914 C460,917 457,919 455,919 C452,919 450,917 450,914 C450,917 447,919 445,919 C442,919 440,917 440,914 C440,917 437,919 435,919 C432,919 430,917 430,914 C430,917 427,919 425,919 C422,919 420,917 420,914 C420,917 417,919 415,919 C412,919 410,917 410,914 C410,917 407,919 405,919 C402,919 400,917 400,914 C400,917 397,919 395,919 C392,919 390,917 390,914 C390,917 387,919 385,919 C382,919 380,917 380,914 C380,917 377,919 375,919 C372,919 370,917 370,914 C370,917 367,919 365,919 C362,919 360,917 360,914 C360,917 357,919 355,919 C352,919 350,917 350,914 C350,917 347,919 345,919 C342,919 340,917 340,914 C340,917 337,919 335,919 C332,919 330,917 330,914 C330,917 327,919 325,919 C322,919 320,917 320,914 C320,917 317,919 315,919 C312,919 310,917 310,914 C310,917 307,919 305,919 C302,919 300,917 300,914 C300,917 297,919 295,919 C292,919 290,917 290,914 C290,917 287,919 285,919 C282,919 280,917 280,914 C280,917 277,919 275,919 C272,919 270,917 270,914 C270,917 267,919 265,919 C262,919 260,917 260,914 C260,917 257,919 255,919 C252,919 250,917 250,914 C250,917 247,919 245,919 C242,919 240,917 240,914 C240,917 237,919 235,919 C232,919 230,917 230,914 C230,917 227,919 225,919 C222,919 220,917 220,914 C220,917 217,919 215,919 C212,919 210,917 210,914 C210,917 207,919 205,919 C202,919 200,917 200,914 C200,917 197,919 195,919 C192,919 190,917 190,914 C190,917 187,919 185,919 C182,919 180,917 180,914 C180,917 177,919 175,919 C172,919 170,917 170,914 C170,917 167,919 165,919 C162,919 160,917 160,914 C160,917 157,919 155,919 C152,919 150,917 150,914 C150,917 147,919 145,919 C142,919 140,917 140,914 C137,914 135,912 135,909 C135,906 137,904 140,904 C137,904 135,902 135,899 C135,896 137,894 140,894 C137,894 135,892 135,889 C135,886 137,884 140,884 C137,884 135,882 135,879 C135,876 137,874 140,874 C137,874 135,872 135,869 C135,866 137,864 140,864 C137,864 135,862 135,859 C135,856 137,854 140,854 C137,854 135,852 135,849 C135,846 137,844 140,844 C137,844 135,842 135,839 C135,836 137,834 140,834 C137,834 135,832 135,829 C135,826 137,824 140,824 C137,824 135,822 135,819 C135,816 137,814 140,814 C137,814 135,812 135,809 C135,806 137,804 140,804 C137,804 135,802 135,799 C135,796 137,794 140,794 C137,794 135,792 135,789 C135,786 137,784 140,784 C137,784 135,782 135,779 C135,776 137,774 140,774 C137,774 135,772 135,769 C135,766 137,764 140,764 C137,764 135,762 135,759 C135,756 137,754 140,754 C137,754 135,752 135,749 C135,746 137,744 140,744 C137,744 135,742 135,739 C135,736 137,734 140,734 C137,734 135,732 135,729 C135,726 137,724 140,724 C137,724 135,722 135,719 C135,716 137,714 140,714 C137,714 135,712 135,709 C135,706 137,704 140,704 C137,704 135,702 135,699 C135,696 137,694 140,694 C137,694 135,692 135,689 C135,686 137,684 140,684 C137,684 135,682 135,679 C135,676 137,674 140,674 C137,674 135,672 135,669 C135,666 137,664 140,664 C137,664 135,662 135,659 C135,656 137,654 140,654 C137,654 135,652 135,649 C135,646 137,644 140,644 C137,644 135,642 135,639 C135,636 137,634 140,634 C137,634 135,632 135,629 C135,626 137,624 140,624 C137,624 135,622 135,619 C135,616 137,614 140,614 C137,614 135,612 135,609 C135,606 137,604 140,604 C137,604 135,602 135,599 C135,596 137,594 140,594 C137,594 135,592 135,589 C135,586 137,584 140,584 C137,584 135,582 135,579 C135,576 137,574 140,574 C137,574 135,572 135,569 C135,566 137,564 140,564 C137,564 135,562 135,559 C135,556 137,554 140,554 C137,554 135,552 135,549 C135,546 137,544 140,544 C137,544 135,542 135,539 C135,536 137,534 140,534 C137,534 135,532 135,529 C135,526 137,524 140,524 C137,524 135,522 135,519 C135,516 137,514 140,514 C137,514 135,512 135,509 C135,506 137,504 140,504 C137,504 135,502 135,499 C135,496 137,494 140,494 C137,494 135,492 135,489 C135,486 137,484 140,484 C137,484 135,482 135,479 C135,476 137,474 140,474 C137,474 135,472 135,469 C135,466 137,464 140,464 C137,464 135,462 135,459 C135,456 137,454 140,454 C137,454 135,452 135,449 C135,446 137,444 140,444 C137,444 135,442 135,439 C135,436 137,434 140,434 C137,434 135,432 135,429 C135,426 137,424 140,424 C137,424 135,422 135,419 C135,416 137,414 140,414 C137,414 135,412 135,409 C135,406 137,404 140,404 C137,404 135,402 135,399 C135,396 137,394 140,394 C137,394 135,392 135,389 C135,386 137,384 140,384 C137,384 135,382 135,379 C135,376 137,374 140,374 C137,374 135,372 135,369 C135,366 137,364 140,364 C137,364 135,362 135,359 C135,356 137,354 140,354 C137,354 135,352 135,349 C135,346 137,344 140,344 C137,344 135,342 135,339 C135,336 137,334 140,334 C137,334 135,332 135,329 C135,326 137,324 140,324 C137,324 135,322 135,319 C135,316 137,314 140,314 C137,314 135,312 135,309 C135,306 137,304 140,304 C137,304 135,302 135,299 C135,296 137,294 140,294 C137,294 135,292 135,289 C135,286 137,284 140,284 C137,284 135,282 135,279 C135,276 137,274 140,274 C137,274 135,272 135,269 C135,266 137,264 140,264 C137,264 135,262 135,259 C135,256 137,254 140,254 C137,254 135,252 135,249 C135,246 137,244 140,244 C137,244 135,242 135,239 C135,236 137,234 140,234 C137,234 135,232 135,229 C135,226 137,224 140,224 " fill="#FFFFFF" filter="url(#f1k80jg4ruv4o5)" style="stroke: #000000; stroke-width: 1.5;"/><text fill="#000000" font-family="sans-serif" font-size="14" font-weight="bold" lengthAdjust="spacingAndGlyphs" textLength="202" x="552.5" y="242.9951">Google Firebase Services</text><!--cluster fb1--><polygon fill="#FFFFFF" filter="url(#f1k80jg4ruv4o5)" points="799,278,809,268,1138,268,1138,561,1128,571,799,571,799,278" style="stroke: #000000; stroke-width: 1.5;"/><line style="stroke: #000000; stroke-width: 1.5;" x1="1128" x2="1137" y1="278" y2="269"/><line style="stroke: #000000; stroke-width: 1.5;" x1="799" x2="1128" y1="278" y2="278"/><line style="stroke: #000000; stroke-width: 1.5;" x1="1128" x2="1128" y1="278" y2="571"/><text fill="#000000" font-family="sans-serif" font-size="14" font-weight="bold" lengthAdjust="spacingAndGlyphs" textLength="188" x="870.5" y="293.9951">Firebase Authentication</text><!--cluster fb2--><path d="M624,621 C624,611 855.5,611 855.5,611 C855.5,611 1087,611 1087,621 L1087,882 C1087,892 855.5,892 855.5,892 C855.5,892 624,892 624,882 L624,621 " fill="#FFFFFF" filter="url(#f1k80jg4ruv4o5)" style="stroke: #000000; stroke-width: 1.5;"/><path d="M624,621 C624,631 855.5,631 855.5,631 C855.5,631 1087,631 1087,621 " fill="none" style="stroke: #000000; stroke-width: 1.5;"/><text fill="#000000" font-family="sans-serif" font-size="14" font-weight="bold" lengthAdjust="spacingAndGlyphs" textLength="146" x="782.5" y="645.9951">Firebase Database</text><!--cluster Data Held--><polygon fill="#FFFFFF" filter="url(#f1k80jg4ruv4o5)" points="664,677,745,677,752,699.2969,1055,699.2969,1055,860,664,860,664,677" style="stroke: #000000; stroke-width: 1.5;"/><line style="stroke: #000000; stroke-width: 1.5;" x1="664" x2="752" y1="699.2969" y2="699.2969"/><text fill="#000000" font-family="sans-serif" font-size="14" font-weight="bold" lengthAdjust="spacingAndGlyphs" textLength="75" x="668" y="691.9951">Data Held</text><!--cluster fb3--><polygon fill="#FFFFFF" filter="url(#f1k80jg4ruv4o5)" points="169,280.5,179,270.5,759,270.5,759,561,749,571,169,571,169,280.5" style="stroke: #000000; stroke-width: 1.5;"/><line style="stroke: #000000; stroke-width: 1.5;" x1="749" x2="758" y1="280.5" y2="271.5"/><line style="stroke: #000000; stroke-width: 1.5;" x1="169" x2="749" y1="280.5" y2="280.5"/><line style="stroke: #000000; stroke-width: 1.5;" x1="749" x2="749" y1="280.5" y2="571"/><text fill="#000000" font-family="sans-serif" font-size="14" font-weight="bold" lengthAdjust="spacingAndGlyphs" textLength="241" x="339.5" y="296.4951">Cloud Services and Messaging</text><!--entity us1--><polygon fill="#FEFECE" filter="url(#f1k80jg4ruv4o5)" points="430,69,440,59,594,59,594,95.2969,584,105.2969,430,105.2969,430,69" style="stroke: #000000; stroke-width: 1.5;"/><line style="stroke: #000000; stroke-width: 1.5;" x1="584" x2="593" y1="69" y2="60"/><line style="stroke: #000000; stroke-width: 1.5;" x1="430" x2="584" y1="69" y2="69"/><line style="stroke: #000000; stroke-width: 1.5;" x1="584" x2="584" y1="69" y2="105.2969"/><text fill="#000000" font-family="sans-serif" font-size="14" lengthAdjust="spacingAndGlyphs" textLength="124" x="445" y="91.9951">Login and register</text><!--entity us2--><polygon fill="#FEFECE" filter="url(#f1k80jg4ruv4o5)" points="189,69,199,59,395,59,395,95.2969,385,105.2969,189,105.2969,189,69" style="stroke: #000000; stroke-width: 1.5;"/><line style="stroke: #000000; stroke-width: 1.5;" x1="385" x2="394" y1="69" y2="60"/><line style="stroke: #000000; stroke-width: 1.5;" x1="189" x2="385" y1="69" y2="69"/><line style="stroke: #000000; stroke-width: 1.5;" x1="385" x2="385" y1="69" y2="105.2969"/><text fill="#000000" font-family="sans-serif" font-size="14" lengthAdjust="spacingAndGlyphs" textLength="166" x="204" y="91.9951">Update user information</text><!--entity us3--><polygon fill="#FEFECE" filter="url(#f1k80jg4ruv4o5)" points="38.5,69,48.5,59,153.5,59,153.5,95.2969,143.5,105.2969,38.5,105.2969,38.5,69" style="stroke: #000000; stroke-width: 1.5;"/><line style="stroke: #000000; stroke-width: 1.5;" x1="143.5" x2="152.5" y1="69" y2="60"/><line style="stroke: #000000; stroke-width: 1.5;" x1="38.5" x2="143.5" y1="69" y2="69"/><line style="stroke: #000000; stroke-width: 1.5;" x1="143.5" x2="143.5" y1="69" y2="105.2969"/><text fill="#000000" font-family="sans-serif" font-size="14" lengthAdjust="spacingAndGlyphs" textLength="75" x="53.5" y="91.9951">Messaging</text><!--entity Internet--><path d="M258,172 C258,169 260,167 263,167 C266,167 268,169 268,172 C268,169 270,167 273,167 C276,167 278,169 278,172 C278,169 280,167 283,167 C286,167 288,169 288,172 C288,169 290,167 293,167 C296,167 298,169 298,172 C298,169 300,167 303,167 C306,167 308,169 308,172 C308,169 310,167 313,167 C316,167 318,169 318,172 C318,169 320,167 323,167 C326,167 328,169 328,172 C331,172 333,174 333,177 C333,180 331,182 328,182 C331,182 333,184 333,187 C333,190 331,192 328,192 C328,195 325,197 323,197 C320,197 318,195 318,192 C318,195 315,197 313,197 C310,197 308,195 308,192 C308,195 305,197 303,197 C300,197 298,195 298,192 C298,195 295,197 293,197 C290,197 288,195 288,192 C288,195 285,197 283,197 C280,197 278,195 278,192 C278,195 275,197 273,197 C270,197 268,195 268,192 C268,195 265,197 263,197 C260,197 258,195 258,192 C255,192 253,190 253,187 C253,184 255,182 258,182 C255,182 253,180 253,177 C253,174 255,172 258,172 " fill="#FFFFFF" filter="url(#f1k80jg4ruv4o5)" style="stroke: #000000; stroke-width: 1.5;"/><text fill="#000000" font-family="sans-serif" font-size="14" lengthAdjust="spacingAndGlyphs" textLength="54" x="265" y="187.9951">Internet</text><ellipse cx="1054.163" cy="333.0236" fill="#FEFECE" filter="url(#f1k80jg4ruv4o5)" rx="29.163" ry="14.5236" style="stroke: #A80036; stroke-width: 1.5;"/><text fill="#000000" font-family="sans-serif" font-size="14" lengthAdjust="spacingAndGlyphs" textLength="37" x="1035.663" y="337.6721">Login</text><ellipse cx="1039.1122" cy="431.4224" fill="#FEFECE" filter="url(#f1k80jg4ruv4o5)" rx="75.1122" ry="17.4224" style="stroke: #A80036; stroke-width: 1.5;"/><text fill="#000000" font-family="sans-serif" font-size="14" lengthAdjust="spacingAndGlyphs" textLength="119" x="979.6122" y="436.0709">Verify Credentials</text><ellipse cx="915.8797" cy="333.1759" fill="#FEFECE" filter="url(#f1k80jg4ruv4o5)" rx="73.8797" ry="17.1759" style="stroke: #A80036; stroke-width: 1.5;"/><text fill="#000000" font-family="sans-serif" font-size="14" lengthAdjust="spacingAndGlyphs" textLength="116" x="857.8797" y="337.8244">Forgot Password</text><ellipse cx="879.9619" cy="431.5236" fill="#FEFECE" filter="url(#f1k80jg4ruv4o5)" rx="48.9619" ry="14.5236" style="stroke: #A80036; stroke-width: 1.5;"/><text fill="#000000" font-family="sans-serif" font-size="14" lengthAdjust="spacingAndGlyphs" textLength="65" x="847.4619" y="436.1721">Find User</text><ellipse cx="902.8489" cy="529.7698" fill="#FEFECE" filter="url(#f1k80jg4ruv4o5)" rx="71.8489" ry="16.7698" style="stroke: #A80036; stroke-width: 1.5;"/><text fill="#000000" font-family="sans-serif" font-size="14" lengthAdjust="spacingAndGlyphs" textLength="111" x="847.3489" y="534.4182">Database Query</text><!--entity User Login Details--><rect fill="#FEFECE" filter="url(#f1k80jg4ruv4o5)" height="36.2969" style="stroke: #A80036; stroke-width: 1.5;" width="144" x="680" y="712"/><rect fill="#FEFECE" height="5" style="stroke: #A80036; stroke-width: 1.5;" width="10" x="675" y="717"/><rect fill="#FEFECE" height="5" style="stroke: #A80036; stroke-width: 1.5;" width="10" x="675" y="738.2969"/><text fill="#000000" font-family="sans-serif" font-size="14" lengthAdjust="spacingAndGlyphs" textLength="124" x="690" y="734.9951">User Login Details</text><!--entity User Profile Information--><rect fill="#FEFECE" filter="url(#f1k80jg4ruv4o5)" height="36.2969" style="stroke: #A80036; stroke-width: 1.5;" width="179" x="859.5" y="712"/><rect fill="#FEFECE" height="5" style="stroke: #A80036; stroke-width: 1.5;" width="10" x="854.5" y="717"/><rect fill="#FEFECE" height="5" style="stroke: #A80036; stroke-width: 1.5;" width="10" x="854.5" y="738.2969"/><text fill="#000000" font-family="sans-serif" font-size="14" lengthAdjust="spacingAndGlyphs" textLength="159" x="869.5" y="734.9951">User Profile Information</text><!--entity User Chats--><rect fill="#FEFECE" filter="url(#f1k80jg4ruv4o5)" height="36.2969" style="stroke: #A80036; stroke-width: 1.5;" width="96" x="704" y="808"/><rect fill="#FEFECE" height="5" style="stroke: #A80036; stroke-width: 1.5;" width="10" x="699" y="813"/><rect fill="#FEFECE" height="5" style="stroke: #A80036; stroke-width: 1.5;" width="10" x="699" y="834.2969"/><text fill="#000000" font-family="sans-serif" font-size="14" lengthAdjust="spacingAndGlyphs" textLength="76" x="714" y="830.9951">User Chats</text><ellipse cx="675.1543" cy="333.0236" fill="#FEFECE" filter="url(#f1k80jg4ruv4o5)" rx="58.1543" ry="14.5236" style="stroke: #A80036; stroke-width: 1.5;"/><text fill="#000000" font-family="sans-serif" font-size="14" lengthAdjust="spacingAndGlyphs" textLength="78" x="636.1543" y="337.6721">View Profile</text><ellipse cx="672.8742" cy="431.2748" fill="#FEFECE" filter="url(#f1k80jg4ruv4o5)" rx="61.8742" ry="14.7748" style="stroke: #A80036; stroke-width: 1.5;"/><text fill="#000000" font-family="sans-serif" font-size="14" lengthAdjust="spacingAndGlyphs" textLength="85" x="630.3742" y="435.9233">Fetch Profile</text><ellipse cx="527.9117" cy="333.0236" fill="#FEFECE" filter="url(#f1k80jg4ruv4o5)" rx="53.9117" ry="14.5236" style="stroke: #A80036; stroke-width: 1.5;"/><text fill="#000000" font-family="sans-serif" font-size="14" lengthAdjust="spacingAndGlyphs" textLength="72" x="491.9117" y="337.6721">Edit Profile</text><ellipse cx="530.8489" cy="529.7698" fill="#FEFECE" filter="url(#f1k80jg4ruv4o5)" rx="71.8489" ry="16.7698" style="stroke: #A80036; stroke-width: 1.5;"/><text fill="#000000" font-family="sans-serif" font-size="14" lengthAdjust="spacingAndGlyphs" textLength="111" x="475.3489" y="534.4182">Database Query</text><ellipse cx="479.9095" cy="431.5819" fill="#FEFECE" filter="url(#f1k80jg4ruv4o5)" rx="95.9095" ry="21.5819" style="stroke: #A80036; stroke-width: 1.5;"/><text fill="#000000" font-family="sans-serif" font-size="14" lengthAdjust="spacingAndGlyphs" textLength="167" x="396.4095" y="436.2303">Update User Information</text><ellipse cx="274.9711" cy="431.5942" fill="#FEFECE" filter="url(#f1k80jg4ruv4o5)" rx="73.4711" ry="17.0942" style="stroke: #A80036; stroke-width: 1.5;"/><text fill="#000000" font-family="sans-serif" font-size="14" lengthAdjust="spacingAndGlyphs" textLength="115" x="217.4711" y="436.2427">Update Chat Log</text><!--link 1uc1 to 1uc2--><path d="M1051.04,353.03 C1048.55,369.08 1044.98,392.04 1042.37,408.8 " fill="none" id="1uc1-1uc2" style="stroke: #A80036; stroke-width: 1.0;"/><polygon fill="#A80036" points="1041.6,413.78,1046.94,405.5045,1042.371,408.8398,1039.0357,404.2708,1041.6,413.78" style="stroke: #A80036; stroke-width: 1.0;"/><polygon fill="#A80036" points="1051.85,347.83,1046.51,356.1055,1051.079,352.7702,1054.4143,357.3392,1051.85,347.83" style="stroke: #A80036; stroke-width: 1.0;"/><!--link 1uc3 to 1uc4--><path d="M908,355.44 C901.66,372.44 892.89,395.95 886.86,412.1 " fill="none" id="1uc3-1uc4" style="stroke: #A80036; stroke-width: 1.0;"/><polygon fill="#A80036" points="885.09,416.86,891.9836,409.826,886.8378,412.1754,884.4883,407.0295,885.09,416.86" style="stroke: #A80036; stroke-width: 1.0;"/><polygon fill="#A80036" points="909.89,350.37,902.9846,357.3925,908.1344,355.0516,910.4752,360.2015,909.89,350.37" style="stroke: #A80036; stroke-width: 1.0;"/><!--link 1uc2 to dbq1--><path d="M1012.53,451.28 C988.42,468.39 953.01,493.51 929.03,510.53 " fill="none" id="1uc2-dbq1" style="stroke: #A80036; stroke-width: 1.0;"/><polygon fill="#A80036" points="924.69,513.61,934.3457,511.6691,928.7693,510.7187,929.7197,505.1423,924.69,513.61" style="stroke: #A80036; stroke-width: 1.0;"/><polygon fill="#A80036" points="1016.85,448.22,1007.1943,450.1609,1012.7707,451.1113,1011.8203,456.6877,1016.85,448.22" style="stroke: #A80036; stroke-width: 1.0;"/><!--link 1uc4 to dbq1--><path d="M884.55,451.6 C888.43,467.85 893.98,491.17 897.99,507.96 " fill="none" id="1uc4-dbq1" style="stroke: #A80036; stroke-width: 1.0;"/><polygon fill="#A80036" points="899.17,512.95,900.9818,503.2692,898.0145,508.0854,893.1983,505.1181,899.17,512.95" style="stroke: #A80036; stroke-width: 1.0;"/><polygon fill="#A80036" points="883.3,446.33,881.5151,456.0158,884.469,451.1914,889.2934,454.1453,883.3,446.33" style="stroke: #A80036; stroke-width: 1.0;"/><!--link 2uc1 to 2uc2--><path d="M674.6,353.29 C674.25,370.04 673.75,394.18 673.4,410.99 " fill="none" id="2uc1-2uc2" style="stroke: #A80036; stroke-width: 1.0;"/><polygon fill="#A80036" points="673.29,416.39,677.4692,407.4718,673.39,411.391,669.4708,407.3118,673.29,416.39" style="stroke: #A80036; stroke-width: 1.0;"/><polygon fill="#A80036" points="674.71,347.83,670.5308,356.7482,674.61,352.829,678.5292,356.9082,674.71,347.83" style="stroke: #A80036; stroke-width: 1.0;"/><!--link 2uc2 to dbq2--><path d="M649.11,448.73 C623.86,465.89 584.12,492.9 557.81,510.78 " fill="none" id="2uc2-dbq2" style="stroke: #A80036; stroke-width: 1.0;"/><polygon fill="#A80036" points="553.38,513.79,563.0724,512.0415,557.516,510.9804,558.577,505.424,553.38,513.79" style="stroke: #A80036; stroke-width: 1.0;"/><polygon fill="#A80036" points="653.26,445.92,643.5635,447.6456,649.1174,448.7198,648.0432,454.2737,653.26,445.92" style="stroke: #A80036; stroke-width: 1.0;"/><!--link 2uc3 to 2uc2--><path d="M551.32,349.52 C578.09,367.34 621.81,396.43 648.91,414.47 " fill="none" id="2uc3-2uc2" style="stroke: #A80036; stroke-width: 1.0;"/><polygon fill="#A80036" points="653.11,417.26,647.8403,408.9395,648.9497,414.4865,643.4027,415.5959,653.11,417.26" style="stroke: #A80036; stroke-width: 1.0;"/><polygon fill="#A80036" points="546.96,346.62,552.2297,354.9405,551.1203,349.3935,556.6673,348.2841,546.96,346.62" style="stroke: #A80036; stroke-width: 1.0;"/><!--link 2uc4 to dbq2--><path d="M493.34,457.75 C501.72,473.6 512.38,493.77 520.22,508.6 " fill="none" id="2uc4-dbq2" style="stroke: #A80036; stroke-width: 1.0;"/><polygon fill="#A80036" points="522.56,513.02,521.9119,503.1925,520.233,508.5945,514.831,506.9156,522.56,513.02" style="stroke: #A80036; stroke-width: 1.0;"/><polygon fill="#A80036" points="490.82,452.97,491.4681,462.7975,493.147,457.3955,498.549,459.0744,490.82,452.97" style="stroke: #A80036; stroke-width: 1.0;"/><!--link 2uc5 to dbq2--><path d="M316.64,448.2 C364.34,466.18 442,495.45 489.59,513.39 " fill="none" id="2uc5-dbq2" style="stroke: #A80036; stroke-width: 1.0;"/><polygon fill="#A80036" points="494.39,515.2,487.393,508.2688,489.7148,513.4272,484.5565,515.749,494.39,515.2" style="stroke: #A80036; stroke-width: 1.0;"/><polygon fill="#A80036" points="311.68,446.33,318.7025,453.2354,316.3616,448.0856,321.5115,445.7448,311.68,446.33" style="stroke: #A80036; stroke-width: 1.0;"/><!--link us1 to Internet--><path d="M460.34,107.27 C445.12,114.34 428.42,122.04 413,129 C386.85,140.8 357.36,153.73 334.04,163.86 " fill="none" id="us1-Internet" style="stroke: #A80036; stroke-width: 1.0;"/><polygon fill="#A80036" points="329.16,165.97,339.0086,166.0385,333.7431,163.9712,335.8105,158.7056,329.16,165.97" style="stroke: #A80036; stroke-width: 1.0;"/><polygon fill="#A80036" points="465.01,105.09,455.1626,105.2611,460.4769,107.1997,458.5382,112.514,465.01,105.09" style="stroke: #A80036; stroke-width: 1.0;"/><!--link us2 to Internet--><path d="M292,110.7 C292,126.19 292,145.23 292,159.74 " fill="none" id="us2-Internet" style="stroke: #A80036; stroke-width: 1.0;"/><polygon fill="#A80036" points="292,164.87,296.0257,155.8815,292.0143,159.87,288.0257,155.8586,292,164.87" style="stroke: #A80036; stroke-width: 1.0;"/><polygon fill="#A80036" points="292,105.46,288,114.46,292,110.46,296,114.46,292,105.46" style="stroke: #A80036; stroke-width: 1.0;"/><!--link us3 to Internet--><path d="M134.32,107.9 C145.92,115.05 158.81,122.63 171,129 C196.73,142.44 226.59,155.55 250.21,165.36 " fill="none" id="us3-Internet" style="stroke: #A80036; stroke-width: 1.0;"/><polygon fill="#A80036" points="254.85,167.28,248.062,160.144,250.2296,165.3691,245.0045,167.5367,254.85,167.28" style="stroke: #A80036; stroke-width: 1.0;"/><polygon fill="#A80036" points="129.78,105.08,135.3043,113.2336,134.024,107.7236,139.5341,106.4432,129.78,105.08" style="stroke: #A80036; stroke-width: 1.0;"/><!--link Internet to fb1--><path d="M334.54,183.84 C441.79,183.77 717.13,185.88 751,209 C775.415,225.67 789.3625,255.7275 797.2325,281.9563 C797.7244,283.5955 798.1925,285.2199 798.638,286.8251 C798.7493,287.2264 798.8593,287.6265 798.9678,288.0253 " fill="none" id="Internet-fb1" style="stroke: #A80036; stroke-width: 1.0;"/><polygon fill="#A80036" points="798.9678,288.0253,800.4639,278.2907,797.6548,283.2008,792.7447,280.3916,798.9678,288.0253" style="stroke: #A80036; stroke-width: 1.0;"/><polygon fill="#A80036" points="329.25,183.84,338.25,187.84,334.25,183.84,338.25,179.84,329.25,183.84" style="stroke: #A80036; stroke-width: 1.0;"/><!--link Internet to fb3--><path d="M249.81,188.69 C223.65,192.54 193.47,199.01 185,209 C167.565,229.57 165.355,259.6875 167.6063,284.9713 C167.8877,288.1317 168.2388,291.2167 168.6386,294.198 C168.7385,294.9433 168.8415,295.6822 168.9472,296.4141 " fill="none" id="Internet-fb3" style="stroke: #A80036; stroke-width: 1.0;"/><polygon fill="#A80036" points="168.9472,296.4141,171.6197,286.9348,168.2325,291.4655,163.7019,288.0783,168.9472,296.4141" style="stroke: #A80036; stroke-width: 1.0;"/><polygon fill="#A80036" points="254.98,187.96,245.508,185.2615,250.0294,188.6611,246.6298,193.1825,254.98,187.96" style="stroke: #A80036; stroke-width: 1.0;"/><!--link dbq1 to fb2--><path d="M866.68,547.45 C836.39,560.41 791.75,577.79 751,587 C732.06,591.28 678.67,582.29 664,595 C661.1531,597.4669 658.5354,600.1374 656.1295,602.9772 C654.9265,604.3972 653.7765,605.8594 652.6772,607.3596 C652.1276,608.1097 651.5906,608.8694 651.0661,609.638 C650.8038,610.0223 650.5447,610.4088 650.2886,610.7975 " fill="none" id="dbq1-fb2" style="stroke: #A80036; stroke-width: 1.0;"/><polygon fill="#A80036" points="650.2886,610.7975,658.5802,605.4825,653.0394,606.6222,651.8997,601.0813,650.2886,610.7975" style="stroke: #A80036; stroke-width: 1.0;"/><polygon fill="#A80036" points="871.42,545.4,861.5716,545.3057,866.8317,547.3868,864.7505,552.6469,871.42,545.4" style="stroke: #A80036; stroke-width: 1.0;"/><!--link dbq2 to fb2--><path d="M541.61,551.81 C554.37,576.815 576.45,620.1 595.5925,657.6275 C605.1637,676.3912 614.0006,693.7156 620.5709,706.5959 C621.3922,708.206 622.1781,709.7466 622.9256,711.2119 C623.1124,711.5782 623.2969,711.9398 623.4789,712.2966 C623.5699,712.475 623.6603,712.6522 623.7501,712.8282 " fill="none" id="dbq2-fb2" style="stroke: #A80036; stroke-width: 1.0;"/><polygon fill="#A80036" points="623.7501,712.8282,623.2236,702.9935,621.4781,708.3743,616.0972,706.6287,623.7501,712.8282" style="stroke: #A80036; stroke-width: 1.0;"/><polygon fill="#A80036" points="539.27,547.2,539.7926,557.035,541.5403,551.6549,546.9204,553.4026,539.27,547.2" style="stroke: #A80036; stroke-width: 1.0;"/><!--link User Login Details to User Profile Information--><!--link User Login Details to User Chats--><!--
@startuml systemArchitecture

Package "Main Activity" as main {
    node "Login and register" as us1
    node "Update user information" as us2
    node "Messaging" as us3
}

cloud "Internet" {


}


cloud "Google Firebase Services" as fb {
    
    node "Firebase Authentication" as fb1 {
        usecase Login as 1uc1
        usecase "Verify Credentials" as 1uc2
        usecase "Forgot Password" as 1uc3
        usecase "Find User" as 1uc4
        usecase "Database Query" as dbq1
        1uc1 <- -> 1uc2
        1uc3 <- -> 1uc4
        1uc2 <- -> dbq1
        1uc4 <- -> dbq1
    }
    database "Firebase Database" as fb2 {
        folder "Data Held"{
            [User Login Details]
            [User Profile Information]
            [User Chats]
        }
    }
    node "Cloud Services and Messaging" as fb3 {
        usecase "View Profile" as 2uc1
        usecase "Fetch Profile" as 2uc2
        usecase "Edit Profile" as 2uc3
        usecase "Database Query" as dbq2
        usecase "Update User Information" as 2uc4
        usecase "Update Chat Log" as 2uc5
        2uc1 <- -> 2uc2
        2uc2 <- -> dbq2
        2uc3 <- -> 2uc2
        2uc4 <- -> dbq2
        2uc5 <- -> dbq2
    }
    
}

us1 <- -> Internet
us2 <- -> Internet
us3 <- -> Internet
Internet <- -> fb1
Internet <- -> fb3
dbq1 <- -> fb2
dbq2 <- -> fb2

@enduml

PlantUML version 1.2018.13(Mon Nov 26 17:11:51 GMT 2018)
(GPL source distribution)
Java Runtime: OpenJDK Runtime Environment
JVM: OpenJDK 64-Bit Server VM
Java Version: 11.0.11+9-Ubuntu-0ubuntu2.20.04
Operating System: Linux
OS Version: 5.4.72-microsoft-standard-WSL2
Default Encoding: UTF-8
Language: en
Country: null
--></g></svg>